<svg width="25" height="25" viewBox="0 0 25 25" fill="none" xmlns="http://www.w3.org/2000/svg">
<path d="M22.5506 17.0483L19.0157 16.6447C18.1668 16.5473 17.3317 16.8395 16.7333 17.438L14.1726 19.9987C10.2341 17.9946 7.00535 14.7798 5.00131 10.8274L7.57595 8.25277C8.17438 7.65434 8.46663 6.81932 8.36921 5.97038L7.96562 2.4633C7.79862 1.05769 6.61568 0 5.19614 0H2.78851C1.21589 0 -0.0923065 1.3082 0.00511237 2.88081C0.742712 14.7659 10.248 24.2573 22.1192 24.9949C23.6918 25.0923 25 23.7841 25 22.2115V19.8039C25.0139 18.3982 23.9562 17.2153 22.5506 17.0483Z" fill="#367BFA"/>
</svg>
