<svg width="15" height="18" viewBox="0 0 15 18" fill="none" xmlns="http://www.w3.org/2000/svg">
<path d="M10.8597 14.0662C11.0227 13.7928 10.9522 13.4657 10.7321 13.249C9.94005 12.4918 9.75091 11.2387 10.3465 10.2395L12.854 6.03207L13.3694 6.33924C13.658 6.51126 14.0227 6.41501 14.1983 6.12049C14.3738 5.82597 14.2849 5.45941 13.9963 5.28739L6.7806 0.986952C6.49197 0.814935 6.12727 0.911185 5.95175 1.2057C5.77622 1.50022 5.86508 1.86678 6.15371 2.0388L6.66912 2.34598L4.16157 6.55338C3.56603 7.55264 2.37388 7.9825 1.33108 7.6461C1.03576 7.55563 0.714527 7.64927 0.551537 7.92275C0.36974 8.22779 0.466683 8.62768 0.765619 8.80584L4.85795 11.2448L1.41007 17.03C1.23455 17.3245 1.32341 17.6911 1.61204 17.8631C1.90067 18.0351 2.26536 17.9388 2.44089 17.6443L5.88876 11.8591L9.98109 14.2981C10.28 14.4763 10.6779 14.3713 10.8597 14.0662Z" fill="white"/>
</svg>
