<svg width="325" height="323" viewBox="0 0 325 323" fill="none" xmlns="http://www.w3.org/2000/svg">
<g filter="url(#filter0_d_289_2084)">
<path d="M231.581 220.354C231.581 258.658 200.563 289.701 162.311 289.701C124.058 289.701 93.0406 258.658 93.0406 220.354C93.0406 182.05 124.058 151.007 162.311 151.007C200.563 151.007 231.581 182.05 231.581 220.354Z" fill="#367BFA" stroke="#1F1A3C" stroke-width="9"/>
<path d="M165.144 203.667V183.526H188.596C199.719 183.526 208.736 192.544 208.736 203.667H165.144Z" fill="white"/>
<path d="M159.503 236.776V256.916H136.052C124.929 256.916 115.912 247.899 115.912 236.776H159.503Z" fill="white"/>
<path d="M159.549 230.57V183.576H140.954C135.641 183.576 126.017 186.013 126.017 203.557C126.017 221.101 135.641 229.525 140.954 230.57H159.549Z" fill="white"/>
<path d="M165.145 210.151V257.145H183.74C189.053 257.145 198.677 254.708 198.677 237.164C198.677 219.62 189.053 211.196 183.74 210.151H165.145Z" fill="white"/>
<path d="M9 152.419C9 184.893 35.3251 211.218 67.7987 211.218H74.7857V126.514C74.7857 108.347 60.0591 93.6207 41.8929 93.6207V93.6207C23.7266 93.6207 9 108.347 9 126.514V152.419Z" fill="#367BFA"/>
<path d="M250.214 211.218H257.201C289.675 211.218 316 184.893 316 152.419V126.514C316 108.347 301.273 93.6207 283.107 93.6207V93.6207C264.941 93.6207 250.214 108.347 250.214 126.514V211.218Z" fill="#367BFA"/>
<path fill-rule="evenodd" clip-rule="evenodd" d="M162.5 131.644C127.414 131.644 105.486 149.253 92.3286 164.933V90.1039C92.3286 68.8234 101.972 48.6893 118.554 35.3508V35.3508C144.228 14.6984 180.85 14.6954 206.569 35.292V35.292C223.249 48.65 232.985 68.8845 232.985 90.2541V164.933C219.863 149.078 197.865 131.644 162.5 131.644ZM162.5 47.4788C128.047 47.4788 127.411 95.998 162.5 95.998C197.589 95.998 196.953 47.4788 162.5 47.4788Z" fill="#367BFA"/>
<path d="M74.7857 211.218H67.7987C35.3251 211.218 9 184.893 9 152.419V126.514C9 108.347 23.7266 93.6207 41.8929 93.6207V93.6207C60.0591 93.6207 74.7857 108.347 74.7857 126.514V211.218ZM74.7857 211.218C74.7857 198.674 79.1714 180.612 92.3286 164.933M250.214 211.218H257.201C289.675 211.218 316 184.893 316 152.419V126.514C316 108.347 301.273 93.6207 283.107 93.6207V93.6207C264.941 93.6207 250.214 108.347 250.214 126.514V211.218ZM250.214 211.218C250.214 198.774 245.898 180.536 232.985 164.933M92.3286 164.933C105.486 149.253 127.414 131.644 162.5 131.644C197.865 131.644 219.863 149.078 232.985 164.933M92.3286 164.933V90.1039C92.3286 68.8234 101.972 48.6893 118.554 35.3508V35.3508C144.228 14.6984 180.85 14.6954 206.569 35.292V35.292C223.249 48.65 232.985 68.8845 232.985 90.2541V164.933M9 233.562H74.7857C79.8926 259.041 104.585 310 162.5 310C186.474 310 204.755 301.268 218.31 289.226C218.699 288.88 219.283 288.869 219.681 289.204L244.148 309.756C244.336 309.914 244.573 310 244.818 310H273.454C274.419 310 274.865 308.801 274.134 308.171L233.698 273.286C233.293 272.936 233.22 272.336 233.524 271.895C242.887 258.32 248.15 243.86 250.214 233.562H316M162.5 47.4788C128.047 47.4788 127.411 95.998 162.5 95.998C197.589 95.998 196.953 47.4788 162.5 47.4788Z" stroke="#1F1A3C" stroke-width="9"/>
<path d="M164.531 69.9497H170.568C171.68 69.9497 172.581 70.8513 172.581 71.9643V75.9934C172.581 77.1065 171.68 78.008 170.568 78.008H158.493C157.381 78.008 156.481 77.1065 156.481 75.9934V59.8769C156.481 58.7639 157.381 57.8624 158.493 57.8624H162.518C163.63 57.8624 164.531 58.7639 164.531 59.8769V69.9497Z" fill="#1F1A3C"/>
</g>
<defs>
<filter id="filter0_d_289_2084" x="0.5" y="0" width="324" height="322.5" filterUnits="userSpaceOnUse" color-interpolation-filters="sRGB">
<feFlood flood-opacity="0" result="BackgroundImageFix"/>
<feColorMatrix in="SourceAlpha" type="matrix" values="0 0 0 0 0 0 0 0 0 0 0 0 0 0 0 0 0 0 127 0" result="hardAlpha"/>
<feOffset dy="4"/>
<feGaussianBlur stdDeviation="2"/>
<feComposite in2="hardAlpha" operator="out"/>
<feColorMatrix type="matrix" values="0 0 0 0 0 0 0 0 0 0 0 0 0 0 0 0 0 0 0.25 0"/>
<feBlend mode="normal" in2="BackgroundImageFix" result="effect1_dropShadow_289_2084"/>
<feBlend mode="normal" in="SourceGraphic" in2="effect1_dropShadow_289_2084" result="shape"/>
</filter>
</defs>
</svg>
