<svg width="78" height="78" viewBox="0 0 78 78" fill="none" xmlns="http://www.w3.org/2000/svg">
<path d="M56.4347 54.7333C56.4347 64.4358 48.6047 72.2953 38.9531 72.2953C29.3016 72.2953 21.4716 64.4358 21.4716 54.7333C21.4716 45.0309 29.3016 37.1713 38.9531 37.1713C48.6047 37.1713 56.4347 45.0309 56.4347 54.7333Z" fill="#367BFA" stroke="#1F1A3C" stroke-width="1.56139"/>
<path d="M39.6547 50.588V45.5854H45.4435C48.2063 45.5854 50.446 47.8252 50.446 50.588H39.6547Z" fill="white"/>
<path d="M38.2582 58.8119V63.8145H32.4694C29.7065 63.8145 27.4668 61.5747 27.4668 58.8119H38.2582Z" fill="white"/>
<path d="M38.2695 57.2708V45.5981H33.6661C32.3509 45.5981 29.9684 46.2034 29.9684 50.5611C29.9684 54.9189 32.3509 57.0114 33.6661 57.2708H38.2695Z" fill="white"/>
<path d="M39.6547 52.199V63.8716H44.2581C45.5733 63.8716 47.9557 63.2664 47.9557 58.9086C47.9557 54.5508 45.5733 52.4583 44.2581 52.199H39.6547Z" fill="white"/>
<path d="M1 49.3411C1 51.0657 2.39811 52.4638 4.12278 52.4638H17.2857V26.3769C17.2857 24.6523 15.8876 23.2542 14.1629 23.2542H4.12278C2.39811 23.2542 1 24.6523 1 26.3769V49.3411Z" fill="#367BFA"/>
<path d="M60.7143 52.4638H73.8772C75.6019 52.4638 77 51.0657 77 49.3411V26.3769C77 24.6523 75.6019 23.2542 73.8772 23.2542H63.8371C62.1124 23.2542 60.7143 24.6523 60.7143 26.3769V52.4638Z" fill="#367BFA"/>
<path fill-rule="evenodd" clip-rule="evenodd" d="M39 32.6986C30.3143 32.6986 24.8857 37.0725 21.6286 40.9672V15.5132C21.6286 14.5693 22.0555 13.6761 22.79 13.0832L37.0431 1.57946C38.1855 0.657398 39.8159 0.655627 40.9604 1.57521L55.2822 13.0831C56.0198 13.6759 56.4489 14.5711 56.4489 15.5174V40.9672C53.2007 37.0291 47.755 32.6986 39 32.6986ZM39 11.7931C30.4709 11.7931 30.3135 23.8447 39 23.8447C47.6865 23.8447 47.5291 11.7931 39 11.7931Z" fill="#367BFA"/>
<path d="M17.2857 52.4638H4.12278C2.39811 52.4638 1 51.0657 1 49.3411V26.3769C1 24.6523 2.39811 23.2542 4.12278 23.2542H14.1629C15.8876 23.2542 17.2857 24.6523 17.2857 26.3769V52.4638ZM17.2857 52.4638C17.2857 49.3481 18.3714 44.8618 21.6286 40.9672M60.7143 52.4638H73.8772C75.6019 52.4638 77 51.0657 77 49.3411V26.3769C77 24.6523 75.6019 23.2542 73.8772 23.2542H63.8371C62.1124 23.2542 60.7143 24.6523 60.7143 26.3769V52.4638ZM60.7143 52.4638C60.7143 49.373 59.6458 44.8429 56.4489 40.9672M21.6286 40.9672C24.8857 37.0725 30.3143 32.6986 39 32.6986C47.755 32.6986 53.2007 37.0291 56.4489 40.9672M21.6286 40.9672V15.5132C21.6286 14.5693 22.0555 13.6761 22.79 13.0832L37.0431 1.57946C38.1855 0.657398 39.8159 0.655627 40.9604 1.57521L55.2822 13.0831C56.0198 13.6759 56.4489 14.5711 56.4489 15.5174V40.9672M1 58.0137H17.2857C18.55 64.3425 24.6627 77 39 77C44.6338 77 48.9977 75.0455 52.2965 72.2886C52.697 71.954 53.2815 71.9406 53.6805 72.277L58.9938 76.755C59.1815 76.9132 59.4191 77 59.6646 77H64.3677C65.3316 77 65.7778 75.8029 65.049 75.1721L57.1593 68.3426C56.7558 67.9933 56.6839 67.3962 56.9744 66.9484C59.0484 63.7514 60.2329 60.4237 60.7143 58.0137H77M39 11.7931C30.4709 11.7931 30.3135 23.8447 39 23.8447C47.6865 23.8447 47.5291 11.7931 39 11.7931Z" stroke="#1F1A3C" stroke-width="1.56139"/>
<path d="M39.5027 17.3744H40.9973C41.2726 17.3744 41.4955 17.5983 41.4955 17.8748V18.8756C41.4955 19.1521 41.2726 19.376 40.9973 19.376H38.0081C37.7329 19.376 37.5099 19.1521 37.5099 18.8756V14.8725C37.5099 14.596 37.7329 14.3721 38.0081 14.3721H39.0045C39.2798 14.3721 39.5027 14.596 39.5027 14.8725V17.3744Z" fill="#1F1A3C"/>
</svg>
