<svg width="14" height="17" viewBox="0 0 14 17" fill="none" xmlns="http://www.w3.org/2000/svg">
<path d="M13.0804 8.99878C11.8045 5.61617 7.26156 5.43377 8.35869 0.517379C8.43996 0.152588 8.05799 -0.129296 7.74917 0.06139C4.79912 1.8356 2.678 5.39232 4.45779 10.0517C4.60407 10.4331 4.16522 10.7896 3.84827 10.5408C2.37731 9.40502 2.2229 7.77175 2.35293 6.60276C2.40169 6.17164 1.84906 5.96438 1.61338 6.32088C1.06075 7.18311 0.5 8.57595 0.5 10.6735C0.808821 15.3163 4.65283 16.7423 6.0344 16.9247C8.00923 17.1817 10.1466 16.8086 11.6826 15.3743C13.373 13.7742 13.9906 11.2207 13.0804 8.99878ZM5.53866 13.169C6.70893 12.8788 7.31032 12.0166 7.47286 11.2538C7.74105 10.0683 6.69268 8.90758 7.39972 7.03388C7.6679 8.58424 10.0572 9.55425 10.0572 11.2456C10.1222 13.3431 7.89546 15.1422 5.53866 13.169Z" fill="white"/>
</svg>
