<svg width="45" height="45" viewBox="0 0 45 45" fill="none" xmlns="http://www.w3.org/2000/svg">
<mask id="mask0_16_45" style="mask-type:alpha" maskUnits="userSpaceOnUse" x="0" y="0" width="45" height="45">
<rect width="45" height="45" fill="#D9D9D9"/>
</mask>
<g mask="url(#mask0_16_45)">
<path d="M20.7421 4.6875C21.2969 4.375 21.8809 4.21875 22.4941 4.21875C23.1073 4.21875 23.6952 4.375 24.2577 4.6875L37.1952 12.1172C37.7577 12.4297 38.1913 12.8555 38.496 13.3945C38.8007 13.9336 38.953 14.5262 38.953 15.1723V22.6172C37.9218 21.8828 36.8007 21.3203 35.5897 20.9297C34.3788 20.5391 33.0936 20.3438 31.7343 20.3438C31.328 20.3438 30.9342 20.3605 30.5529 20.394C30.1716 20.4275 29.7841 20.4888 29.3905 20.5781L35.4374 17.0859V15.2347L33.5389 14.1328L22.4999 20.5312L11.4608 14.1328L9.56238 15.226V17.0625L20.7421 23.5547V26.8594C20.2448 27.7584 19.8588 28.7136 19.584 29.7251C19.3092 30.7365 19.1718 31.7969 19.1718 32.9062C19.1718 34.3594 19.4061 35.7344 19.8749 37.0312C20.3436 38.3281 20.9921 39.5078 21.8202 40.5703C21.6327 40.5859 21.4491 40.5742 21.2694 40.5352C21.0897 40.4961 20.9139 40.4219 20.7421 40.3125L7.80457 32.8594C7.24207 32.5469 6.80847 32.1263 6.50378 31.5978C6.1991 31.0692 6.04675 30.4819 6.04675 29.8359V15.1641C6.04675 14.5234 6.1991 13.9336 6.50378 13.3945C6.80847 12.8555 7.24207 12.4297 7.80457 12.1172L20.7421 4.6875ZM31.7577 38.3906L37.2421 32.9062L35.9764 31.6406L32.6483 34.9688V27.4219H30.8202V34.9688L27.4921 31.6406L26.2264 32.9062L31.7577 38.3906ZM31.7374 41.9531C29.2353 41.9531 27.1014 41.0714 25.3358 39.3078C23.5702 37.5443 22.6874 35.4115 22.6874 32.9094C22.6874 30.4073 23.5691 28.2734 25.3327 26.5078C27.0962 24.7422 29.229 23.8594 31.7311 23.8594C34.2332 23.8594 36.3671 24.7411 38.1327 26.5047C39.8983 28.2682 40.7811 30.401 40.7811 32.9031C40.7811 35.4052 39.8994 37.5391 38.1358 39.3047C36.3723 41.0703 34.2395 41.9531 31.7374 41.9531Z" fill="white"/>
</g>
</svg>
