<svg width="234" height="119" viewBox="0 0 234 119" fill="none" xmlns="http://www.w3.org/2000/svg">
<path d="M24.7765 91.6437C25.5367 91.6437 26.1529 91.0313 26.1529 90.2759C26.1529 89.5204 25.5367 88.9081 24.7765 88.9081C24.0163 88.9081 23.4 89.5204 23.4 90.2759C23.4 91.0313 24.0163 91.6437 24.7765 91.6437Z" fill="#767676"/>
<path d="M173.887 75.1343C174.837 75.1343 175.607 74.283 175.607 73.2329C175.607 72.1828 174.837 71.3315 173.887 71.3315C172.936 71.3315 172.166 72.1828 172.166 73.2329C172.166 74.283 172.936 75.1343 173.887 75.1343Z" fill="#767676"/>
<path d="M30.0583 73.4896H56.0113V82.2747H40.589V89.399H53.7471V97.6546H40.589V114.334H30.037V73.4896H30.0583Z" fill="#3C3736"/>
<path d="M61.3727 73.4896H70.814V81.2156H61.3727V73.4896ZM61.3727 84.7537H70.814V114.334H61.3727V84.7537Z" fill="#3C3736"/>
<path d="M76.838 84.7299H85.6172V89.5436C86.9201 87.57 88.2658 86.174 89.6116 85.3316C90.9573 84.4892 92.5807 84.0559 94.5245 84.0559C97.1304 84.0559 99.181 84.9946 100.655 86.8479C102.129 88.7253 102.876 91.5894 102.876 95.4886V114.286H93.3924V98.0158C93.3924 96.1625 93.1147 94.8387 92.5379 94.0685C91.9612 93.2983 91.1709 92.9132 90.1242 92.9132C88.9707 92.9132 88.0522 93.4427 87.3474 94.4777C86.6425 95.5127 86.2793 97.39 86.2793 100.086V114.286H76.838V84.7058V84.7299Z" fill="#3C3736"/>
<path d="M134.404 73.4897V114.334H125.582V109.954C124.343 111.807 123.211 113.059 122.207 113.708C120.84 114.551 119.345 114.984 117.658 114.984C114.304 114.984 111.741 113.444 109.968 110.387C108.195 107.33 107.319 103.6 107.319 99.2191C107.319 94.3091 108.302 90.5544 110.245 87.955C112.189 85.3555 114.688 84.0558 117.7 84.0558C119.174 84.0558 120.498 84.3447 121.695 84.9464C122.891 85.5481 123.959 86.4386 124.877 87.618V73.4656H134.404V73.4897ZM124.941 99.4598C124.941 97.1492 124.536 95.4163 123.703 94.261C122.891 93.1297 121.844 92.5521 120.605 92.5521C119.516 92.5521 118.597 93.1057 117.85 94.1888C117.102 95.2959 116.739 97.1251 116.739 99.7005C116.739 102.107 117.124 103.888 117.893 104.996C118.661 106.127 119.601 106.68 120.733 106.68C121.93 106.68 122.934 106.103 123.745 104.972C124.557 103.84 124.941 101.987 124.941 99.4357V99.4598Z" fill="#3C3736"/>
<path d="M166.124 102.348H148.117C148.288 104.177 148.673 105.525 149.292 106.416C150.168 107.691 151.3 108.341 152.689 108.341C153.564 108.341 154.419 108.052 155.209 107.499C155.7 107.138 156.213 106.512 156.768 105.621L165.612 106.656C164.266 109.617 162.621 111.759 160.72 113.059C158.819 114.358 156.063 114.984 152.496 114.984C149.399 114.984 146.943 114.431 145.17 113.323C143.397 112.216 141.923 110.459 140.748 108.052C139.573 105.646 138.996 102.829 138.996 99.5802C138.996 94.959 140.171 91.2043 142.521 88.3642C144.871 85.5 148.117 84.0799 152.24 84.0799C155.594 84.0799 158.242 84.7298 160.186 86.0054C162.13 87.2811 163.604 89.1344 164.629 91.5653C165.654 93.9963 166.146 97.1733 166.146 101.072V102.348H166.124ZM156.982 96.9086C156.811 94.7183 156.341 93.1538 155.572 92.1911C154.825 91.2524 153.821 90.771 152.582 90.771C151.151 90.771 150.018 91.4931 149.164 92.9132C148.63 93.8037 148.267 95.1275 148.117 96.9086H156.961H156.982Z" fill="#3C3736"/>
<path d="M169.777 81.9379H177.979V87.233C178.769 84.9464 179.581 83.3579 180.414 82.4914C181.247 81.625 182.294 81.1917 183.533 81.1917C184.772 81.1917 186.246 81.7694 187.784 82.9006L185.071 91.7338C184.046 91.1321 183.212 90.8192 182.614 90.8192C181.461 90.8192 180.585 91.4931 179.944 92.841C179.047 94.7424 178.577 98.2805 178.577 103.455V114.31H169.777V81.9138V81.9379Z" fill="#3C3736"/>
<path d="M53.7471 89.3751H40.5891V97.6307H53.7471V89.3751Z" fill="#365A72"/>
<path d="M13.3017 91.0854C13.3017 91.0854 14.9695 94.718 13.0579 97.7336C13.0579 97.7336 16.4731 96.447 19.072 100.094C19.072 100.094 17.0424 95.7448 19.2964 93.3254C19.2964 93.3254 16.5049 94.1968 13.2815 91.0922L13.3017 91.0854Z" fill="#767676"/>
<path d="M203.296 84.6264C203.669 84.6264 203.971 84.2864 203.971 83.8669C203.971 83.4474 203.669 83.1073 203.296 83.1073C202.923 83.1073 202.62 83.4474 202.62 83.8669C202.62 84.2864 202.923 84.6264 203.296 84.6264Z" fill="#767676"/>
<path d="M182.609 68.7649C182.982 68.7649 183.285 68.4248 183.285 68.0053C183.285 67.5858 182.982 67.2458 182.609 67.2458C182.236 67.2458 181.934 67.5858 181.934 68.0053C181.934 68.4248 182.236 68.7649 182.609 68.7649Z" fill="#767676"/>
<path d="M182.609 68.7649C182.982 68.7649 183.285 68.4248 183.285 68.0053C183.285 67.5858 182.982 67.2458 182.609 67.2458C182.236 67.2458 181.934 67.5858 181.934 68.0053C181.934 68.4248 182.236 68.7649 182.609 68.7649Z" fill="#767676"/>
<path d="M196.907 74.7581C196.907 74.7581 197.775 78.6317 195.279 81.2832C195.279 81.2832 198.881 80.5967 200.656 84.6442C200.656 84.6442 199.584 80.0006 202.29 77.9966C202.29 77.9966 199.383 78.3796 196.886 74.7614L196.907 74.7581Z" fill="#767676"/>
<path d="M56.0113 73.4896H40.5891V82.2747H56.0113V73.4896Z" fill="#81B5D2"/>
<path d="M107.554 103.118C107.554 103.118 109.156 118.161 120.862 114.382L107.554 103.118Z" fill="#70ABDD"/>
</svg>
