<svg width="63" height="57" viewBox="0 0 63 57" fill="none" xmlns="http://www.w3.org/2000/svg">
<path d="M42.6119 39.1317C42.6119 45.3653 37.5585 50.4187 31.3249 50.4187C25.0912 50.4187 20.0379 45.3653 20.0379 39.1317C20.0379 32.8981 25.0912 27.8447 31.3249 27.8447C37.5585 27.8447 42.6119 32.8981 42.6119 39.1317Z" fill="#367BFA" stroke="#1F1A3C" stroke-width="1.56139"/>
<path d="M31.7886 36.4047V33.1136H35.6283C37.446 33.1136 38.9195 34.5871 38.9195 36.4047H31.7886Z" fill="white"/>
<path d="M30.8657 41.8153V45.1065H27.026C25.2083 45.1065 23.7348 43.6329 23.7348 41.8153H30.8657Z" fill="white"/>
<path d="M30.8732 40.8011V33.1216H27.8314C26.9622 33.1216 25.3879 33.5198 25.3879 36.3868C25.3879 39.2538 26.9622 40.6304 27.8314 40.8011H30.8732Z" fill="white"/>
<path d="M31.7885 37.4644V45.1438H34.8304C35.6995 45.1438 37.2738 44.7457 37.2738 41.8787C37.2738 39.0117 35.6995 37.6351 34.8304 37.4644H31.7885Z" fill="white"/>
<path d="M6.24561 34.516C6.24561 36.2406 7.64372 37.6387 9.36838 37.6387H17.0072V21.5445C17.0072 19.8198 15.6091 18.4217 13.8844 18.4217H9.36838C7.64372 18.4217 6.24561 19.8198 6.24561 21.5445V34.516Z" fill="#367BFA"/>
<path d="M45.7047 37.6387H53.3435C55.0681 37.6387 56.4662 36.2406 56.4662 34.516V21.5445C56.4662 19.8198 55.0681 18.4217 53.3434 18.4217H48.8274C47.1028 18.4217 45.7047 19.8198 45.7047 21.5445V37.6387Z" fill="#367BFA"/>
<path fill-rule="evenodd" clip-rule="evenodd" d="M31.3559 24.6352C25.6164 24.6352 22.0292 27.5128 19.8769 30.0751V13.8437C19.8769 12.8974 20.306 12.0022 21.0436 11.4094L29.4042 4.69111C30.5447 3.77465 32.1686 3.77288 33.311 4.68687L41.7141 11.4094C42.4549 12.002 42.8861 12.8992 42.8861 13.8478V30.0751C40.7397 27.4842 37.1412 24.6352 31.3559 24.6352ZM31.3559 10.8815C25.7199 10.8815 25.6159 18.8102 31.3559 18.8102C37.096 18.8102 36.9919 10.8815 31.3559 10.8815Z" fill="#367BFA"/>
<path d="M31.3559 10.8815C25.7199 10.8815 25.6159 18.8102 31.3559 18.8102C37.096 18.8102 36.9919 10.8815 31.3559 10.8815Z" fill="white"/>
<path d="M17.0072 37.6387H9.36838C7.64372 37.6387 6.24561 36.2406 6.24561 34.516V21.5445C6.24561 19.8198 7.64372 18.4217 9.36838 18.4217H13.8844C15.6091 18.4217 17.0072 19.8198 17.0072 21.5445V37.6387ZM17.0072 37.6387C17.0072 35.5889 17.7246 32.6373 19.8769 30.0751M45.7047 37.6387H53.3435C55.0681 37.6387 56.4662 36.2406 56.4662 34.516V21.5445C56.4662 19.8198 55.0681 18.4217 53.3434 18.4217H48.8274C47.1028 18.4217 45.7047 19.8198 45.7047 21.5445V37.6387ZM45.7047 37.6387C45.7047 35.6053 44.9986 32.6249 42.8861 30.0751M19.8769 30.0751C22.0292 27.5128 25.6164 24.6352 31.3559 24.6352C37.1412 24.6352 40.7397 27.4842 42.8861 30.0751M19.8769 30.0751V13.8437C19.8769 12.8974 20.306 12.0022 21.0436 11.4094L29.4042 4.69111C30.5447 3.77465 32.1686 3.77288 33.311 4.68687L41.7141 11.4094C42.4549 12.002 42.8861 12.8992 42.8861 13.8478V30.0751M6.24561 41.29H17.0072C17.8426 45.4537 21.8819 53.7811 31.3559 53.7811C34.945 53.7811 37.7542 52.586 39.9046 50.8748C40.3116 50.551 40.893 50.5364 41.2915 50.8707L44.4696 53.5376C44.6571 53.6949 44.894 53.7811 45.1387 53.7811H47.1622C48.1272 53.7811 48.5727 52.5817 47.8417 51.9517L43.6009 48.2968C43.1953 47.9473 43.124 47.3485 43.408 46.8946C44.6707 44.8764 45.4003 42.8069 45.7047 41.29H56.4662M31.3559 10.8815C25.7199 10.8815 25.6159 18.8102 31.3559 18.8102C37.096 18.8102 36.9919 10.8815 31.3559 10.8815Z" stroke="#1F1A3C" stroke-width="1.56139"/>
<path d="M31.688 14.5535H32.6757C32.8576 14.5535 33.0049 14.7008 33.0049 14.8827V15.5411C33.0049 15.723 32.8576 15.8704 32.6757 15.8704H30.7004C30.5185 15.8704 30.3712 15.723 30.3712 15.5411V12.9075C30.3712 12.7256 30.5185 12.5783 30.7004 12.5783H31.3588C31.5407 12.5783 31.688 12.7256 31.688 12.9075V14.5535Z" fill="#1F1A3C"/>
</svg>
